# Blender v2.77 (sub 0) OBJ File: ''
# www.blender.org
mtllib wolfen.mtl
o metal_ID40
v -0.123479 0.148468 -0.334042
v 0.005762 0.344072 -0.577662
v 0.003093 0.226106 -0.176660
v 0.003093 0.226106 -0.176660
v 0.005762 0.344072 -0.577662
v 0.130920 0.147619 -0.332602
v 0.001147 -0.224097 -0.099012
v 0.129941 -0.145922 -0.333014
v 0.021939 -0.223868 -0.314162
v 0.001147 -0.224097 -0.099012
v 0.128095 -0.117037 0.009488
v 0.129941 -0.145922 -0.333014
v 0.001147 -0.224097 -0.099012
v -0.126305 -0.116189 0.008048
v -0.003106 -0.068695 0.742676
v -0.003106 -0.068695 0.742676
v 0.128095 -0.117037 0.009488
v 0.001147 -0.224097 -0.099012
v -0.124458 -0.145073 -0.334453
v -0.126305 -0.116189 0.008048
v 0.001147 -0.224097 -0.099012
v -0.017200 -0.223737 -0.314383
v -0.124458 -0.145073 -0.334453
v 0.001147 -0.224097 -0.099012
v 0.003093 0.226106 -0.176660
v -0.066460 0.157641 -0.030376
v -0.123479 0.148468 -0.334042
v -0.066460 0.157641 -0.030376
v -0.125521 0.118644 0.008376
v -0.123479 0.148468 -0.334042
v 0.128878 0.117796 0.009816
v 0.070524 0.157184 -0.029600
v 0.003093 0.226106 -0.176660
v 0.130920 0.147619 -0.332602
v 0.128878 0.117796 0.009816
v 0.003093 0.226106 -0.176660
v 0.000323 0.127669 0.253723
v -0.002650 0.068290 0.742868
v -0.125521 0.118644 0.008376
v 0.003842 0.001420 -0.441157
v -0.124458 -0.145073 -0.334453
v 0.129941 -0.145922 -0.333014
v 0.100528 0.069252 -0.195894
v -0.002650 0.068290 0.742868
v 0.128878 0.117796 0.009816
v 0.128878 0.117796 0.009816
v -0.002650 0.068290 0.742868
v 0.000323 0.127669 0.253723
v -0.125521 0.118644 0.008376
v -0.002650 0.068290 0.742868
v -0.095164 0.069904 -0.197003
v 0.128095 -0.117037 0.009488
v -0.003106 -0.068695 0.742676
v 0.100071 -0.067734 -0.196085
v -0.095620 -0.067082 -0.197195
v -0.003106 -0.068695 0.742676
v -0.126305 -0.116189 0.008048
v 0.129941 -0.145922 -0.333014
v -0.124458 -0.145073 -0.334453
v 0.022360 -0.213989 -0.382640
v -0.124458 -0.145073 -0.334453
v -0.016779 -0.213858 -0.382861
v 0.022360 -0.213989 -0.382640
vt 0.5000 0.4990
vt 0.5000 2.1201
vt 1.0000 1.0000
vt 0.0000 1.0000
vt 0.5000 2.1201
vt 0.5000 0.4990
vt 0.5625 2.2676
vt 1.0000 2.3398
vt 0.5000 1.4570
vt 1.0000 2.3398
vt 1.0000 1.0000
vt 0.5000 1.4570
vt 0.5000 -1.8516
vt 0.0000 1.0000
vt 0.5000 1.4570
vt 0.5000 1.4570
vt 1.0000 1.0000
vt 0.5000 -1.8516
vt 0.5000 1.4570
vt 0.0000 1.0000
vt 0.0000 2.3398
vt 0.5000 1.4570
vt 0.0000 2.3398
vt 0.4365 2.2676
vt 0.0000 1.0000
vt 0.2490 2.1670
vt 0.4990 1.5713
vt 0.0000 1.0000
vt 0.0000 2.3389
vt 0.2490 2.1670
vt 0.4990 1.5713
vt 0.7490 2.1670
vt 0.9990 2.3389
vt 0.4990 1.5713
vt 0.9990 2.3389
vt 0.9990 1.0000
vt 1.0000 1.0000
vt 0.5000 -1.8457
vt 0.5000 0.0645
vt 0.0000 1.0000
vt 3.0059 1.0000
vt 1.5029 -1.0547
vt 1.1553 -0.0635
vt 0.5000 -3.7559
vt 1.0000 1.0000
vt 0.5000 0.0645
vt 0.5000 -1.8457
vt 0.0000 1.0000
vt 0.0000 1.0000
vt 0.5000 -3.7559
vt -0.1553 -0.0635
vt 0.9990 1.0000
vt 0.4990 5.7559
vt 1.1553 2.0635
vt -0.1553 2.0635
vt 0.4990 5.7559
vt 0.0000 0.9990
vt 0.4365 1.3535
vt 1.0000 0.9990
vt 0.0000 0.9990
vt 0.4365 1.3535
vt 0.5625 1.3535
vt 1.0000 0.9990
vn -0.6823 0.7026 0.2021
vn 0.6846 0.6980 0.2099
vn 0.5907 -0.8049 0.0562
vn 0.6075 -0.7913 0.0700
vn -0.5642 -0.8124 0.1471
vn 0.5571 -0.8161 0.1535
vn -0.6135 -0.7872 0.0631
vn -0.5967 -0.8010 0.0495
vn -0.5983 0.7964 0.0883
vn -0.5166 0.8532 0.0712
vn 0.4515 0.8695 0.2005
vn 0.5857 0.8072 0.0738
vn -0.2896 0.9504 0.1136
vn 0.0026 -0.5902 -0.8072
vn 0.6894 -0.7205 0.0750
vn 0.2947 0.9484 0.1169
vn -0.6950 -0.7159 0.0672
vn 0.6941 0.7157 0.0770
vn -0.6902 0.7203 0.0692
vn 0.0065 0.5823 -0.8129
usemtl metal
s off
f 3/1/1 2/2/1 1/3/1
f 6/4/2 5/5/2 4/6/2
f 9/7/3 8/8/3 7/9/3
f 12/10/4 11/11/4 10/12/4
f 15/13/5 14/14/5 13/15/5
f 18/16/6 17/17/6 16/18/6
f 21/19/7 20/20/7 19/21/7
f 24/22/8 23/23/8 22/24/8
f 27/25/9 26/26/9 25/27/9
f 30/28/10 29/29/10 28/30/10
f 33/31/11 32/32/11 31/33/11
f 36/34/12 35/35/12 34/36/12
f 39/37/13 38/38/13 37/39/13
f 42/40/14 41/41/14 40/42/14
f 45/43/15 44/44/15 43/45/15
f 48/46/16 47/47/16 46/48/16
f 51/49/17 50/50/17 49/51/17
f 54/52/18 53/53/18 52/54/18
f 57/55/19 56/56/19 55/57/19
f 60/58/20 59/59/20 58/60/20
f 63/61/20 62/62/20 61/63/20
o vent_ID94
v -0.046469 0.001248 -0.196821
v -0.095164 0.069904 -0.197003
v -0.095621 -0.067082 -0.197195
v -0.095164 0.069904 -0.197003
v -0.242161 0.001901 -0.197930
v -0.095621 -0.067082 -0.197195
v -0.048371 0.030119 0.155464
v 0.049475 0.029793 0.156016
v -0.048566 -0.028589 0.155380
v 0.049475 0.029793 0.156016
v 0.049279 -0.028915 0.155936
v -0.048566 -0.028589 0.155380
v 0.247068 0.000269 -0.195159
v 0.100528 0.069251 -0.195894
v 0.100071 -0.067734 -0.196085
v 0.100528 0.069251 -0.195894
v 0.051377 0.000922 -0.196268
v 0.100071 -0.067734 -0.196085
vt 1.3535 2.9316
vt 1.3535 -0.9316
vt 0.0000 1.0000
vt 1.3535 2.9316
vt 5.4941 1.0000
vt 1.3535 -0.9316
vt 0.0000 1.0000
vt 4.0078 -3.0078
vt 0.0000 -3.0078
vt 0.0000 1.0000
vt 4.0078 1.0000
vt 4.0078 -3.0078
vt 4.5098 3.1035
vt 4.5098 -1.1035
vt 0.0000 1.0000
vt 4.5098 3.1035
vt 5.9863 1.0000
vt 4.5098 -1.1035
vn 0.0057 0.0014 -1.0000
vn -0.0057 -0.0014 1.0000
vn -0.0057 -0.0013 1.0000
usemtl vent
s off
f 66/64/21 65/65/21 64/66/21
f 69/67/21 68/68/21 67/69/21
f 72/70/22 71/71/22 70/72/22
f 75/73/23 74/74/23 73/75/23
f 78/76/21 77/77/21 76/78/21
f 81/79/21 80/80/21 79/81/21
o plate_ID85
v 0.003842 0.001420 -0.441157
v 0.100528 0.069252 -0.195894
v 0.130920 0.147619 -0.332601
v 0.130920 0.147619 -0.332601
v -0.123479 0.148468 -0.334041
v 0.003842 0.001420 -0.441157
v 0.003842 0.001420 -0.441157
v -0.123479 0.148468 -0.334041
v -0.095164 0.069904 -0.197002
v 0.003842 0.001420 -0.441157
v 0.129941 -0.145922 -0.333013
v 0.100071 -0.067734 -0.196084
v -0.095621 -0.067082 -0.197194
v -0.124458 -0.145074 -0.334453
v 0.003842 0.001420 -0.441157
v -0.048566 -0.028589 0.155381
v 0.049279 -0.028915 0.155937
v -0.095621 -0.067082 -0.197194
v 0.049279 -0.028915 0.155937
v 0.100071 -0.067734 -0.196084
v -0.095621 -0.067082 -0.197194
v -0.242161 0.001901 -0.197929
v -0.095164 0.069904 -0.197002
v -0.048371 0.030119 0.155465
v -0.242161 0.001901 -0.197929
v -0.048371 0.030119 0.155465
v -0.048566 -0.028589 0.155381
v -0.048566 -0.028589 0.155381
v -0.095621 -0.067082 -0.197194
v -0.242161 0.001901 -0.197929
v 0.049475 0.029793 0.156017
v -0.048371 0.030119 0.155465
v 0.100528 0.069252 -0.195894
v -0.048371 0.030119 0.155465
v -0.095164 0.069904 -0.197002
v 0.100528 0.069252 -0.195894
v 0.049279 -0.028915 0.155937
v 0.049475 0.029793 0.156017
v 0.247068 0.000269 -0.195159
v 0.049475 0.029793 0.156017
v 0.100528 0.069252 -0.195894
v 0.247068 0.000269 -0.195159
v 0.247068 0.000269 -0.195159
v 0.100071 -0.067734 -0.196084
v 0.049279 -0.028915 0.155937
vt -0.5654 0.0273
vt 0.0000 1.0000
vt 0.4990 -0.9033
vt 0.5000 1.6826
vt 1.0000 1.0000
vt 0.0000 1.0000
vt 0.0000 0.9990
vt -0.5654 1.9717
vt 0.4990 2.9033
vt 0.9990 1.0000
vt 1.5654 0.0273
vt 0.4990 -0.9033
vt 0.4990 2.9033
vt 1.5654 1.9717
vt 0.9990 1.0000
vt 0.0000 1.0693
vt 0.7256 -0.7607
vt 0.2734 -0.7607
vt 0.0000 1.0693
vt 1.0000 1.0693
vt 0.7256 -0.7607
vt 0.7266 3.6357
vt 1.0000 1.0000
vt 0.5000 0.6279
vt 0.2725 3.6357
vt 0.7266 3.6357
vt 0.5000 0.6279
vt 0.5000 0.6279
vt 0.0000 1.0000
vt 0.2725 3.6357
vt 1.0000 1.0000
vt 0.2734 -0.7930
vt 0.7256 -0.7930
vt 1.0000 1.0000
vt 0.0000 1.0000
vt 0.2734 -0.7930
vt 0.5020 1.4170
vt 0.8320 -1.5420
vt 0.3867 -1.5586
vt 0.5020 1.4170
vt 0.9990 1.0000
vt 0.8320 -1.5420
vt 0.3867 -1.5586
vt 0.0215 0.9639
vt 0.5020 1.4170
vn 0.7997 -0.5801 -0.1548
vn 0.0065 0.5925 -0.8056
vn -0.8017 -0.5748 -0.1639
vn 0.8035 0.5752 -0.1532
vn -0.7979 0.5806 -0.1623
vn -0.0039 -0.9940 0.1090
vn -0.4155 0.8961 0.1563
vn -0.8769 0.0022 0.4807
vn -0.4215 -0.8937 0.1538
vn 0.0027 0.9937 0.1118
vn 0.8714 -0.0036 0.4906
vn 0.4197 0.8933 0.1610
vn 0.4137 -0.8965 0.1586
usemtl plate
s off
f 84/82/24 83/83/24 82/84/24
f 87/85/25 86/86/25 85/87/25
f 90/88/26 89/89/26 88/90/26
f 93/91/27 92/92/27 91/93/27
f 96/94/28 95/95/28 94/96/28
f 99/97/29 98/98/29 97/99/29
f 102/100/29 101/101/29 100/102/29
f 105/103/30 104/104/30 103/105/30
f 108/106/31 107/107/31 106/108/31
f 111/109/32 110/110/32 109/111/32
f 114/112/33 113/113/33 112/114/33
f 117/115/33 116/116/33 115/117/33
f 120/118/34 119/119/34 118/120/34
f 123/121/35 122/122/35 121/123/35
f 126/124/36 125/125/36 124/126/36
o wing_ID76
v 0.286330 0.137044 -0.136038
v 0.618630 0.272719 0.012803
v 0.277091 0.117654 -0.243751
v 0.100071 -0.067734 -0.196085
v -0.003106 -0.068695 0.742676
v -0.095621 -0.067081 -0.197195
v -0.016779 -0.213858 -0.382861
v -0.017200 -0.223737 -0.314383
v 0.001615 -0.399967 -0.285165
v 0.277091 0.117654 -0.243751
v 0.618630 0.272719 0.012803
v 0.287307 0.147057 -0.302362
v 0.001615 -0.399967 -0.285165
v 0.021938 -0.223868 -0.314162
v 0.022360 -0.213989 -0.382640
v -0.016779 -0.213858 -0.382861
v -0.124458 -0.145073 -0.334453
v -0.017200 -0.223737 -0.314383
v -0.281179 -0.144591 -0.305984
v -0.616055 -0.271112 0.005058
v -0.282090 -0.135035 -0.139636
v 0.021938 -0.223868 -0.314162
v 0.129941 -0.145922 -0.333014
v 0.022360 -0.213989 -0.382640
v -0.280198 0.148949 -0.305576
v -0.614227 0.276831 0.005825
v -0.270845 0.119482 -0.246854
v -0.270845 0.119482 -0.246854
v -0.614227 0.276831 0.005825
v -0.281176 0.138937 -0.139253
v -0.282090 -0.135035 -0.139636
v -0.616055 -0.271112 0.005058
v -0.271629 -0.115350 -0.247182
v -0.271629 -0.115350 -0.247182
v -0.616055 -0.271112 0.005058
v -0.281179 -0.144591 -0.305984
v 0.276308 -0.117178 -0.244080
v 0.616802 -0.275224 0.012040
v 0.285417 -0.136928 -0.136421
v 0.286328 -0.146484 -0.302773
v 0.616802 -0.275224 0.012040
v 0.276308 -0.117178 -0.244080
v -0.281176 0.138937 -0.139253
v -0.614227 0.276831 0.005825
v -0.280198 0.148949 -0.305576
v 0.287307 0.147057 -0.302362
v 0.618630 0.272719 0.012803
v 0.286330 0.137044 -0.136038
v 0.285417 -0.136928 -0.136421
v 0.616802 -0.275224 0.012040
v 0.286328 -0.146484 -0.302773
vt 1.0000 0.9990
vt 1.0000 0.0000
vt 2.1182 0.8457
vt 0.0000 0.9990
vt 0.4990 5.7783
vt 1.0000 0.9990
vt 1.4658 2.5430
vt 0.9990 1.0000
vt 0.0000 0.9990
vt 0.0000 1.0000
vt 1.0000 0.0000
vt 1.0000 0.9990
vt 0.9990 0.9990
vt 0.0000 1.0000
vt -0.4658 3.3672
vt 0.9990 1.0000
vt 0.5986 -0.8770
vt 0.0000 0.9990
vt 1.0000 0.9990
vt 1.0000 0.0000
vt 0.0000 1.0000
vt 0.9990 0.9990
vt 0.4004 -0.2236
vt 0.0000 1.0000
vt 0.9990 1.0000
vt 0.9990 0.0000
vt -0.0615 1.0000
vt 2.1885 0.8457
vt 0.9990 0.0000
vt 0.9990 1.0000
vt 1.0000 0.9990
vt 0.0000 0.9990
vt 0.8193 1.1807
vt 1.0234 0.8701
vt 0.0000 0.9990
vt 1.0000 0.9990
vt 0.1797 1.1621
vt 1.0000 1.0000
vt 0.0000 0.9990
vt 0.0000 0.9990
vt 1.0000 1.0000
vt -0.0234 0.8545
vt 0.0000 1.0000
vt 1.0000 0.0000
vt 0.9990 1.0000
vt 1.0000 1.0000
vt 1.0000 0.0000
vt 0.0000 1.0000
vt 0.0000 1.0000
vt 1.0000 0.0000
vt 1.0000 0.9990
vn 0.3193 -0.9371 0.1413
vn 0.0033 1.0000 0.0014
vn -0.9937 -0.1097 -0.0219
vn 0.5669 -0.7717 -0.2883
vn 0.9931 -0.1164 -0.0107
vn -0.5723 -0.8111 -0.1205
vn 0.3970 -0.9162 0.0548
vn 0.5682 -0.8149 -0.1141
vn -0.5688 -0.7679 -0.2947
vn -0.3271 -0.9349 0.1376
vn -0.3209 0.9367 0.1402
vn -0.5636 0.7725 -0.2926
vn 0.3255 0.9345 0.1439
vn 0.5720 0.7687 -0.2862
vn 0.4031 0.9133 0.0574
vn -0.3977 0.9160 0.0528
vn -0.4037 -0.9135 0.0503
usemtl wing
s off
f 129/127/37 128/128/37 127/129/37
f 132/130/38 131/131/38 130/132/38
f 135/133/39 134/134/39 133/135/39
f 138/136/40 137/137/40 136/138/40
f 141/139/41 140/140/41 139/141/41
f 144/142/42 143/143/42 142/144/42
f 147/145/43 146/146/43 145/147/43
f 150/148/44 149/149/44 148/150/44
f 153/151/45 152/152/45 151/153/45
f 156/154/46 155/155/46 154/156/46
f 159/157/47 158/158/47 157/159/47
f 162/160/48 161/161/48 160/162/48
f 165/163/49 164/164/49 163/165/49
f 168/166/50 167/167/50 166/168/50
f 171/169/51 170/170/51 169/171/51
f 174/172/52 173/173/52 172/174/52
f 177/175/53 176/176/53 175/177/53
o glass_ID67
v 0.000323 0.127669 0.253723
v 0.002316 0.225919 -0.039676
v 0.070524 0.157184 -0.029601
v 0.070524 0.157184 -0.029601
v 0.002316 0.225919 -0.039676
v 0.003093 0.226106 -0.176660
v 0.003093 0.226106 -0.176660
v 0.002316 0.225919 -0.039676
v -0.066460 0.157641 -0.030376
v -0.066460 0.157641 -0.030376
v 0.002316 0.225919 -0.039676
v 0.000323 0.127669 0.253723
vt 0.3906 1.0000
vt 0.5312 1.0625
vt 0.5312 0.3477
vt 0.5312 1.3750
vt 0.5312 1.0625
vt 0.3906 1.0000
vt 0.6719 1.0000
vt 0.5312 1.0625
vt 0.5312 1.3750
vt 0.5312 0.3477
vt 0.5312 1.0625
vt 0.6719 1.0000
vn 0.6714 0.7014 0.2394
vn 0.7094 0.7047 0.0050
vn -0.7047 0.7095 -0.0030
vn -0.6694 0.7058 0.2318
usemtl glass
s off
f 180/178/54 179/179/54 178/180/54
f 183/181/55 182/182/55 181/183/55
f 186/184/56 185/185/56 184/186/56
f 189/187/57 188/188/57 187/189/57
o bars_ID58
v 0.003842 0.001421 -0.441157
v 0.100071 -0.067735 -0.196085
v 0.051377 0.000921 -0.196268
v 0.051377 0.000921 -0.196268
v 0.100528 0.069252 -0.195894
v 0.003842 0.001421 -0.441157
v -0.046469 0.001248 -0.196821
v -0.095621 -0.067082 -0.197195
v 0.003842 0.001421 -0.441157
v 0.003842 0.001421 -0.441157
v -0.095164 0.069904 -0.197003
v -0.046469 0.001248 -0.196821
v 0.130920 0.147619 -0.332602
v 0.005762 0.344073 -0.577662
v -0.123479 0.148468 -0.334042
v 0.000323 0.127669 0.253723
v 0.070524 0.157184 -0.029600
v 0.128879 0.117796 0.009816
v -0.125520 0.118644 0.008376
v -0.066460 0.157641 -0.030376
v 0.000323 0.127669 0.253723
v -0.095164 0.069904 -0.197003
v -0.002650 0.068290 0.742868
v 0.100528 0.069252 -0.195894
vt 0.5000 1.0723
vt 0.0000 1.0000
vt 0.5000 2.9082
vt 0.5000 2.9082
vt 1.0000 1.0000
vt 0.5000 1.0723
vt 0.5000 2.9082
vt 1.0000 1.0000
vt 0.5000 1.0723
vt 0.5000 1.0723
vt 0.0000 1.0000
vt 0.5000 2.9082
vt 3.0469 1.0000
vt 1.5234 -2.7012
vt 0.0000 0.9980
vt 0.0000 1.0000
vt 0.9980 0.9980
vt -0.1113 -2.2266
vt 1.1113 -2.2266
vt 0.0000 1.0000
vt 0.9980 0.9980
vt 0.0000 0.9980
vt 0.9922 10.4883
vt 1.9844 0.9980
vn 0.8060 0.5712 -0.1553
vn 0.8022 -0.5761 -0.1569
vn -0.8003 0.5766 -0.1644
vn -0.8041 -0.5708 -0.1660
vn 0.0009 -0.7800 -0.6258
vn 0.4504 0.8696 0.2022
vn -0.4469 0.8726 0.1971
vn -0.0033 -1.0000 -0.0014
usemtl bars
s off
f 192/190/58 191/191/58 190/192/58
f 195/193/59 194/194/59 193/195/59
f 198/196/60 197/197/60 196/198/60
f 201/199/61 200/200/61 199/201/61
f 204/202/62 203/203/62 202/204/62
f 207/205/63 206/206/63 205/207/63
f 210/208/64 209/209/64 208/210/64
f 213/211/65 212/212/65 211/213/65
o red_ID49
v 0.100527 0.069252 -0.195894
v 0.128879 0.117795 0.009816
v 0.286330 0.137044 -0.136038
v 0.277091 0.117654 -0.243751
v 0.100527 0.069252 -0.195894
v 0.286330 0.137044 -0.136038
v -0.123479 0.148468 -0.334042
v -0.125520 0.118644 0.008376
v -0.281175 0.138937 -0.139253
v 0.130920 0.147618 -0.332602
v 0.100527 0.069252 -0.195894
v 0.277091 0.117654 -0.243751
v 0.287307 0.147057 -0.302362
v 0.130920 0.147618 -0.332602
v 0.277091 0.117654 -0.243751
v -0.280199 0.148949 -0.305576
v -0.123479 0.148468 -0.334042
v -0.281175 0.138937 -0.139253
v 0.129941 -0.145922 -0.333013
v 0.128095 -0.117037 0.009488
v 0.285416 -0.136928 -0.136421
v 0.286328 -0.146484 -0.302773
v 0.129941 -0.145922 -0.333013
v 0.285416 -0.136928 -0.136421
v 0.021939 -0.223868 -0.314163
v 0.001615 -0.399967 -0.285166
v 0.001147 -0.224098 -0.099012
v 0.001147 -0.224098 -0.099012
v 0.001615 -0.399967 -0.285166
v -0.017200 -0.223737 -0.314383
v 0.001615 -0.399967 -0.285166
v 0.003813 -0.389659 -0.666747
v -0.016779 -0.213858 -0.382861
v 0.022360 -0.213989 -0.382641
v 0.003813 -0.389659 -0.666747
v 0.001615 -0.399967 -0.285166
v -0.095621 -0.067082 -0.197195
v -0.126304 -0.116189 0.008049
v -0.282089 -0.135035 -0.139636
v 0.003813 -0.389659 -0.666747
v 0.022360 -0.213989 -0.382641
v -0.016779 -0.213858 -0.382861
v -0.124458 -0.145073 -0.334453
v -0.095621 -0.067082 -0.197195
v -0.271629 -0.115351 -0.247182
v -0.271629 -0.115351 -0.247182
v -0.095621 -0.067082 -0.197195
v -0.282089 -0.135035 -0.139636
v -0.281178 -0.144592 -0.305984
v -0.124458 -0.145073 -0.334453
v -0.271629 -0.115351 -0.247182
v -0.095164 0.069905 -0.197003
v -0.123479 0.148468 -0.334042
v -0.280199 0.148949 -0.305576
v -0.270845 0.119482 -0.246854
v -0.095164 0.069905 -0.197003
v -0.280199 0.148949 -0.305576
v -0.281175 0.138937 -0.139253
v -0.125520 0.118644 0.008376
v -0.270845 0.119482 -0.246854
v -0.125520 0.118644 0.008376
v -0.095164 0.069905 -0.197003
v -0.270845 0.119482 -0.246854
v 0.285416 -0.136928 -0.136421
v 0.128095 -0.117037 0.009488
v 0.276308 -0.117178 -0.244080
v 0.128095 -0.117037 0.009488
v 0.100071 -0.067734 -0.196085
v 0.276308 -0.117178 -0.244080
v 0.100071 -0.067734 -0.196085
v 0.129941 -0.145922 -0.333013
v 0.286328 -0.146484 -0.302773
v 0.276308 -0.117178 -0.244080
v 0.100071 -0.067734 -0.196085
v 0.286328 -0.146484 -0.302773
v -0.282089 -0.135035 -0.139636
v -0.126304 -0.116189 0.008049
v -0.281178 -0.144592 -0.305984
v -0.126304 -0.116189 0.008049
v -0.124458 -0.145073 -0.334453
v -0.281178 -0.144592 -0.305984
v 0.286330 0.137044 -0.136038
v 0.128879 0.117795 0.009816
v 0.287307 0.147057 -0.302362
v 0.128879 0.117795 0.009816
v 0.130920 0.147618 -0.332602
v 0.287307 0.147057 -0.302362
vt -0.6172 1.7695
vt 0.0000 2.3086
vt 0.1172 1.4941
vt -0.6172 1.7695
vt 0.1172 1.4941
vt -0.5566 1.3203
vt 1.6172 0.2188
vt 1.0000 -0.3398
vt 1.0000 0.9980
vt -0.5566 1.3203
vt 0.1172 1.4941
vt 0.0000 1.0000
vt -0.5566 1.3203
vt 0.0000 1.0000
vt -0.6172 1.1133
vt 1.6172 0.2188
vt 1.0000 0.9980
vt 1.6172 0.8887
vt -0.6172 1.7793
vt 0.0000 2.3398
vt 0.0000 1.0000
vt -0.6172 1.7793
vt 0.0000 1.0000
vt -0.6172 1.1094
vt 0.4980 5.6445
vt 0.4980 -2.0586
vt 0.0000 1.0000
vt 0.9980 1.0000
vt 0.4980 -2.0586
vt 0.4980 5.6445
vt 0.9980 -0.5879
vt 0.5000 -10.5820
vt 0.4980 -2.0586
vt 0.4980 -2.0586
vt 0.5000 -10.5820
vt 0.0000 -0.5879
vt 1.6172 0.2363
vt 1.0000 -0.2930
vt 0.8809 0.5234
vt 0.9980 0.9980
vt 0.0000 0.9980
vt 0.4980 11.1797
vt 1.5566 0.6855
vt 0.8809 0.5234
vt 1.0000 1.0000
vt 1.6172 0.2363
vt 0.8809 0.5234
vt 1.5566 0.6855
vt 1.5566 0.6855
vt 1.0000 1.0000
vt 1.6172 0.8848
vt 1.6172 1.1133
vt 0.9980 1.0000
vt 0.8809 1.4941
vt 1.6172 1.1133
vt 0.8809 1.4941
vt 1.5566 1.3203
vt 1.5566 1.3203
vt 0.9980 2.3086
vt 1.6172 1.7695
vt 1.5566 1.3203
vt 0.8809 1.4941
vt 0.9980 2.3086
vt -0.5566 0.6855
vt 0.0000 -0.2930
vt -0.6172 0.2363
vt -0.5566 0.6855
vt 0.1172 0.5234
vt 0.0000 -0.2930
vt -0.6172 0.8848
vt 0.0000 1.0000
vt 0.1172 0.5234
vt -0.6172 0.8848
vt 0.1172 0.5234
vt -0.5566 0.6855
vt 1.6172 1.1094
vt 1.0000 2.3398
vt 1.6172 1.7793
vt 1.6172 1.1094
vt 1.0000 0.9980
vt 1.0000 2.3398
vt -0.6172 0.8887
vt 0.0000 -0.3398
vt -0.6172 0.2188
vt -0.6172 0.8887
vt 0.0000 0.9980
vt 0.0000 -0.3398
vn 0.2845 -0.9411 0.1829
vn 0.2978 -0.9437 0.1443
vn 0.0473 0.9951 0.0870
vn 0.1103 -0.8727 -0.4757
vn 0.0810 -0.8965 -0.4356
vn 0.0140 0.9981 0.0602
vn -0.0482 -0.9953 0.0837
vn -0.0147 -0.9983 0.0573
vn 0.9905 -0.0986 0.0956
vn -0.9922 -0.0919 0.0844
vn -0.9947 -0.1028 -0.0085
vn 0.9940 -0.1094 0.0028
vn -0.2865 0.9406 0.1822
vn 0.0058 0.8504 -0.5262
vn -0.1049 0.8740 -0.4746
vn -0.2994 0.9433 0.1435
vn -0.0761 0.8977 -0.4340
vn -0.0901 -0.8719 -0.4813
vn -0.1310 -0.8943 -0.4279
vn -0.2637 -0.9533 0.1470
vn -0.3131 -0.9334 0.1752
vn 0.2620 0.9529 0.1526
vn 0.3111 0.9329 0.1813
vn 0.0955 0.8733 -0.4778
vn 0.1358 0.8955 -0.4239
vn 0.0659 -0.9962 0.0576
vn 0.0122 -0.9964 0.0841
vn -0.0666 0.9960 0.0596
vn -0.0132 0.9961 0.0867
usemtl red
s off
f 216/214/66 215/215/66 214/216/66
f 219/217/67 218/218/67 217/219/67
f 222/220/68 221/221/68 220/222/68
f 225/223/69 224/224/69 223/225/69
f 228/226/70 227/227/70 226/228/70
f 231/229/71 230/230/71 229/231/71
f 234/232/72 233/233/72 232/234/72
f 237/235/73 236/236/73 235/237/73
f 240/238/74 239/239/74 238/240/74
f 243/241/75 242/242/75 241/243/75
f 246/244/76 245/245/76 244/246/76
f 249/247/77 248/248/77 247/249/77
f 252/250/78 251/251/78 250/252/78
f 255/253/79 254/254/79 253/255/79
f 258/256/80 257/257/80 256/258/80
f 261/259/81 260/260/81 259/261/81
f 264/262/82 263/263/82 262/264/82
f 267/265/83 266/266/83 265/267/83
f 270/268/84 269/269/84 268/270/84
f 273/271/85 272/272/85 271/273/85
f 276/274/86 275/275/86 274/276/86
f 279/277/87 278/278/87 277/279/87
f 282/280/88 281/281/88 280/282/88
f 285/283/89 284/284/89 283/285/89
f 288/286/90 287/287/90 286/288/90
f 291/289/91 290/290/91 289/291/91
f 294/292/92 293/293/92 292/294/92
f 297/295/93 296/296/93 295/297/93
f 300/298/94 299/299/94 298/300/94
