# Blender v2.77 (sub 0) OBJ File: ''
# www.blender.org
mtllib Dragon.mtl
o silver_ID35
v 0.380915 -0.159381 -0.168268
v 0.114792 -0.085957 -0.176722
v -0.003554 -0.129106 -0.290675
v -0.121759 -0.085951 -0.176580
v -0.003554 -0.129106 -0.290675
v -0.003687 0.037657 -0.518650
v -0.387876 -0.159362 -0.167804
v -0.121759 -0.085951 -0.176580
v -0.003059 -0.226081 0.531991
v 0.380915 -0.159381 -0.168268
v -0.003478 -0.225448 -0.160280
v -0.003059 -0.226081 0.531991
v -0.003554 -0.129106 -0.290675
v -0.121759 -0.085951 -0.176580
v -0.387876 -0.159362 -0.167804
v -0.003059 -0.226081 0.531991
v -0.003478 -0.225448 -0.160280
v -0.387876 -0.159362 -0.167804
v -0.003687 0.037657 -0.518650
v -0.003554 -0.129106 -0.290675
v 0.114792 -0.085957 -0.176722
v -0.003059 -0.226081 0.531991
v 0.114792 -0.085957 -0.176722
v 0.380915 -0.159381 -0.168268
vt 0.0000 1.0000
vt 0.9980 1.0000
vt 2.0195 -0.2773
vt -0.6230 -0.5293
vt 0.0000 1.0000
vt 1.0000 1.0000
vt 3.0234 -2.0234
vt 3.0234 1.0000
vt 0.0000 1.0000
vt 1.0352 2.7578
vt 0.9980 1.0000
vt 0.0000 1.0000
vt 2.0195 2.2773
vt 1.0000 1.0000
vt 0.0000 1.0000
vt 0.0000 1.0000
vt 1.0000 1.0000
vt 1.0352 -0.7578
vt 1.0000 1.0000
vt 0.0000 1.0000
vt -0.6230 2.5293
vt -2.0020 1.0000
vt 0.9980 1.0000
vt 1.0000 -2.0020
vn 0.2383 0.8002 -0.5504
vn -0.6539 -0.6108 -0.4464
vn -0.2519 0.9405 0.2282
vn 0.1694 -0.9856 -0.0010
vn -0.2389 0.8002 -0.5501
vn -0.1694 -0.9855 -0.0008
vn 0.6533 -0.6109 -0.4472
vn 0.2522 0.9404 0.2279
usemtl silver
s off
f 3/1/1 2/2/1 1/3/1
f 6/4/2 5/5/2 4/6/2
f 9/7/3 8/8/3 7/9/3
f 12/10/4 11/11/4 10/12/4
f 15/13/5 14/14/5 13/15/5
f 18/16/6 17/17/6 16/18/6
f 21/19/7 20/20/7 19/21/7
f 24/22/8 23/23/8 22/24/8
o black_ID80
v -0.003566 0.179249 -0.326863
v -0.003405 -0.026395 -0.049667
v -0.121759 -0.085951 -0.176580
v 0.114792 -0.085956 -0.176723
v -0.003405 -0.026395 -0.049667
v -0.003566 0.179249 -0.326863
vt 1.0000 1.0000
vt 0.0000 1.0000
vt 1.0000 0.0000
vt 1.0000 0.0000
vt 0.0000 1.0000
vt 1.0000 1.0000
vn -0.7219 0.5555 0.4126
vn 0.7225 0.5555 0.4117
usemtl black
s off
f 27/25/9 26/26/9 25/27/9
f 30/28/10 29/29/10 28/30/10
o red_ID71
v -0.121759 -0.085951 -0.176579
v -0.358399 0.340778 -0.345604
v -0.003566 0.179249 -0.326862
v -0.003566 0.179249 -0.326862
v 0.351254 0.340760 -0.346032
v 0.114792 -0.085956 -0.176722
v -0.003687 0.037657 -0.518649
v -0.003566 0.179249 -0.326862
v -0.358399 0.340778 -0.345604
v -0.003687 0.037657 -0.518649
v 0.351254 0.340760 -0.346032
v -0.003566 0.179249 -0.326862
vt 1.0000 1.0000
vt 1.0312 -0.1953
vt 0.0000 1.0000
vt 1.0000 1.0000
vt -0.0312 -0.1953
vt 0.0000 1.0000
vt 0.0000 1.0000
vt 1.0000 0.9980
vt 1.0000 0.0000
vt 1.0000 1.0000
vt 0.0000 1.0000
vt 1.0000 0.0000
vn 0.1513 0.4354 0.8874
vn -0.1503 0.4354 0.8876
vn 0.3694 0.7475 -0.5521
vn -0.3701 0.7475 -0.5516
usemtl red
s off
f 33/31/11 32/32/11 31/33/11
f 36/34/12 35/35/12 34/36/12
f 39/37/13 38/38/13 37/39/13
f 42/40/14 41/41/14 40/42/14
o orange_ID62
v -0.003059 -0.226081 0.531991
v -0.121759 -0.085951 -0.176580
v -0.003405 -0.026394 -0.049667
v -0.003059 -0.226081 0.531991
v -0.003405 -0.026394 -0.049667
v 0.114792 -0.085957 -0.176722
vt 0.9980 1.0215
vt -0.9180 0.9980
vt 1.0000 -0.9180
vt -0.9043 1.0000
vt 1.0000 1.0000
vt 1.0000 -0.9043
vn -0.6362 0.7296 0.2509
vn 0.6365 0.7296 0.2501
usemtl orange
s off
f 45/43/15 44/44/15 43/45/15
f 48/46/16 47/47/16 46/48/16
o light_ID53
v -0.003554 -0.129106 -0.290674
v -0.003478 -0.225448 -0.160280
v 0.380915 -0.159381 -0.168267
v -0.387876 -0.159362 -0.167803
v -0.003478 -0.225448 -0.160280
v -0.003554 -0.129106 -0.290674
vt 0.6191 3.4766
vt 1.0020 1.0410
vt 0.0000 1.0000
vt 0.0000 1.0000
vt 0.9980 1.0000
vt 0.7207 -1.4394
vn 0.1249 -0.7980 -0.5896
vn -0.1256 -0.7979 -0.5895
usemtl light
s off
f 51/49/17 50/50/17 49/51/17
f 54/52/18 53/53/18 52/54/18
o cyan_ID44
v -0.003687 0.037657 -0.518649
v -0.358399 0.340778 -0.345604
v -0.121759 -0.085951 -0.176579
v 0.114792 -0.085956 -0.176722
v 0.351254 0.340760 -0.346032
v -0.003687 0.037657 -0.518649
vt 1.0000 1.0000
vt 0.4238 -0.2383
vt 0.0000 1.0000
vt 1.0000 1.0000
vt 0.5742 -0.2383
vt 0.0000 1.0000
vn -0.6974 -0.5626 -0.4440
vn 0.6968 -0.5626 -0.4449
usemtl cyan
s off
f 57/55/19 56/56/19 55/57/19
f 60/58/20 59/59/20 58/60/20
